<svg width="102" height="48" viewBox="0 0 102 48" fill="none" xmlns="http://www.w3.org/2000/svg">
<circle cx="24" cy="24" r="24" fill="#FF5B5B"/>
<circle cx="24" cy="24" r="20.25" fill="white"/>
<circle cx="24" cy="24" r="16.5" fill="#FF5B5B"/>
<circle cx="24" cy="24" r="12.75" fill="white"/>
<circle cx="24" cy="24" r="9" fill="#FF5B5B"/>
<path d="M31.2487 20.013L27.8467 29.625H26.4292L24.0127 22.713L21.5692 29.625H20.1517L16.7632 20.013H18.5317L20.9347 27.1815L23.4322 20.013H24.6742L27.1177 27.2355L29.5747 20.013H31.2487Z" fill="black"/>
<path d="M32.6003 20.013H34.3418V29.625H32.6003V20.013Z" fill="black"/>
<path d="M36.4235 20.013H38.165V28.194H42.6605V29.625H36.4235V20.013Z" fill="black"/>
<path d="M43.9777 20.013H45.7192V28.194H50.2147V29.625H43.9777V20.013Z" fill="black"/>
<path d="M51.5319 20.013H55.7034C56.7384 20.013 57.5439 20.265 58.1199 20.769C58.6959 21.264 58.9839 21.9435 58.9839 22.8075C58.9839 23.6715 58.6914 24.3555 58.1064 24.8595C57.5304 25.3635 56.7294 25.6155 55.7034 25.6155H53.2734V29.625H51.5319V20.013ZM55.5009 24.2655C56.1039 24.2655 56.5584 24.144 56.8644 23.901C57.1794 23.649 57.3369 23.289 57.3369 22.821C57.3369 22.344 57.1839 21.984 56.8779 21.741C56.5719 21.489 56.1129 21.363 55.5009 21.363H53.2734V24.2655H55.5009Z" fill="black"/>
<path d="M64.7496 29.7465C63.8226 29.7465 63.0126 29.5485 62.3196 29.1525C61.6356 28.7475 61.1046 28.176 60.7266 27.438C60.3576 26.691 60.1731 25.8135 60.1731 24.8055C60.1731 23.8065 60.3576 22.938 60.7266 22.2C61.0956 21.453 61.6221 20.8815 62.3061 20.4855C62.9991 20.0895 63.8136 19.8915 64.7496 19.8915C65.6856 19.8915 66.4956 20.0895 67.1796 20.4855C67.8726 20.8815 68.3991 21.453 68.7591 22.2C69.1281 22.938 69.3126 23.8065 69.3126 24.8055C69.3126 25.8135 69.1281 26.691 68.7591 27.438C68.3901 28.176 67.8636 28.7475 67.1796 29.1525C66.4956 29.5485 65.6856 29.7465 64.7496 29.7465ZM64.7496 28.356C65.6406 28.356 66.3336 28.05 66.8286 27.438C67.3236 26.826 67.5711 25.9485 67.5711 24.8055C67.5711 23.6715 67.3236 22.803 66.8286 22.2C66.3336 21.588 65.6406 21.282 64.7496 21.282C63.8586 21.282 63.1656 21.5835 62.6706 22.1865C62.1756 22.7895 61.9281 23.6625 61.9281 24.8055C61.9281 25.9485 62.1756 26.826 62.6706 27.438C63.1656 28.05 63.8586 28.356 64.7496 28.356Z" fill="black"/>
<path d="M84.6159 20.013L81.2139 29.625H79.7964L77.3799 22.713L74.9364 29.625H73.5189L70.1304 20.013H71.8989L74.3019 27.1815L76.7994 20.013H78.0414L80.4849 27.2355L82.9419 20.013H84.6159Z" fill="black"/>
<path d="M85.9675 20.013H92.3935V21.39H87.6685V24.0495H92.11V25.4265H87.6685V28.248H92.3935V29.625H85.9675V20.013Z" fill="black"/>
<path d="M101.907 29.625H100.071L98.8428 26.4255C98.7348 26.1285 98.5683 25.9215 98.3433 25.8045C98.1183 25.6875 97.8258 25.629 97.4658 25.629H95.7243V29.625H93.9963V20.013H98.1138C99.2028 20.013 100.031 20.2515 100.598 20.7285C101.165 21.2055 101.448 21.8895 101.448 22.7805C101.448 23.4195 101.277 23.964 100.935 24.414C100.602 24.855 100.125 25.17 99.5043 25.359C100.071 25.476 100.481 25.872 100.733 26.547L101.907 29.625ZM97.8708 24.279C98.5278 24.279 99.0138 24.1575 99.3288 23.9145C99.6438 23.6715 99.8013 23.3025 99.8013 22.8075C99.8013 22.3215 99.6438 21.9615 99.3288 21.7275C99.0228 21.4845 98.5368 21.363 97.8708 21.363H95.6973V24.279H97.8708Z" fill="black"/>
</svg>
